<?xml version="1.0" standalone="no"?>
<svg xmlns:xlink="http://www.w3.org/1999/xlink" id="wave" style="transform:rotate(0deg); transition: 0.3s" viewBox="0 0 1440 420" version="1.1" xmlns="http://www.w3.org/2000/svg"><defs><linearGradient id="sw-gradient-0" x1="0" x2="0" y1="1" y2="0"><stop stop-color="rgba(76, 29, 149, 1)" offset="0%"/><stop stop-color="rgba(76, 29, 149, 1)" offset="100%"/></linearGradient></defs><path style="transform:translate(0, 0px); opacity:1" fill="url(#sw-gradient-0)" d="M0,168L80,182C160,196,320,224,480,196C640,168,800,84,960,63C1120,42,1280,84,1440,140C1600,196,1760,266,1920,252C2080,238,2240,140,2400,84C2560,28,2720,14,2880,14C3040,14,3200,28,3360,28C3520,28,3680,14,3840,35C4000,56,4160,112,4320,168C4480,224,4640,280,4800,308C4960,336,5120,336,5280,308C5440,280,5600,224,5760,231C5920,238,6080,308,6240,308C6400,308,6560,238,6720,182C6880,126,7040,84,7200,119C7360,154,7520,266,7680,308C7840,350,8000,322,8160,301C8320,280,8480,266,8640,266C8800,266,8960,280,9120,245C9280,210,9440,126,9600,77C9760,28,9920,14,10080,14C10240,14,10400,28,10560,49C10720,70,10880,98,11040,140C11200,182,11360,238,11440,266L11520,294L11520,420L11440,420C11360,420,11200,420,11040,420C10880,420,10720,420,10560,420C10400,420,10240,420,10080,420C9920,420,9760,420,9600,420C9440,420,9280,420,9120,420C8960,420,8800,420,8640,420C8480,420,8320,420,8160,420C8000,420,7840,420,7680,420C7520,420,7360,420,7200,420C7040,420,6880,420,6720,420C6560,420,6400,420,6240,420C6080,420,5920,420,5760,420C5600,420,5440,420,5280,420C5120,420,4960,420,4800,420C4640,420,4480,420,4320,420C4160,420,4000,420,3840,420C3680,420,3520,420,3360,420C3200,420,3040,420,2880,420C2720,420,2560,420,2400,420C2240,420,2080,420,1920,420C1760,420,1600,420,1440,420C1280,420,1120,420,960,420C800,420,640,420,480,420C320,420,160,420,80,420L0,420Z"/></svg>