<?xml version="1.0" standalone="no"?>
<svg xmlns:xlink="http://www.w3.org/1999/xlink" id="wave" style="transform:rotate(180deg); transition: 0.3s" viewBox="0 0 1440 280" version="1.1" xmlns="http://www.w3.org/2000/svg"><defs><linearGradient id="sw-gradient-0" x1="0" x2="0" y1="1" y2="0"><stop stop-color="rgba(76, 29, 149, 1)" offset="0%"/><stop stop-color="rgba(76, 29, 149, 1)" offset="100%"/></linearGradient></defs><path style="transform:translate(0, 0px); opacity:1" fill="url(#sw-gradient-0)" d="M0,168L80,149.3C160,131,320,93,480,107.3C640,121,800,187,960,182C1120,177,1280,103,1440,93.3C1600,84,1760,140,1920,163.3C2080,187,2240,177,2400,154C2560,131,2720,93,2880,70C3040,47,3200,37,3360,70C3520,103,3680,177,3840,205.3C4000,233,4160,215,4320,182C4480,149,4640,103,4800,74.7C4960,47,5120,37,5280,56C5440,75,5600,121,5760,121.3C5920,121,6080,75,6240,46.7C6400,19,6560,9,6720,46.7C6880,84,7040,168,7200,172.7C7360,177,7520,103,7680,70C7840,37,8000,47,8160,65.3C8320,84,8480,112,8640,121.3C8800,131,8960,121,9120,98C9280,75,9440,37,9600,37.3C9760,37,9920,75,10080,84C10240,93,10400,75,10560,98C10720,121,10880,187,11040,177.3C11200,168,11360,84,11440,42L11520,0L11520,280L11440,280C11360,280,11200,280,11040,280C10880,280,10720,280,10560,280C10400,280,10240,280,10080,280C9920,280,9760,280,9600,280C9440,280,9280,280,9120,280C8960,280,8800,280,8640,280C8480,280,8320,280,8160,280C8000,280,7840,280,7680,280C7520,280,7360,280,7200,280C7040,280,6880,280,6720,280C6560,280,6400,280,6240,280C6080,280,5920,280,5760,280C5600,280,5440,280,5280,280C5120,280,4960,280,4800,280C4640,280,4480,280,4320,280C4160,280,4000,280,3840,280C3680,280,3520,280,3360,280C3200,280,3040,280,2880,280C2720,280,2560,280,2400,280C2240,280,2080,280,1920,280C1760,280,1600,280,1440,280C1280,280,1120,280,960,280C800,280,640,280,480,280C320,280,160,280,80,280L0,280Z"/></svg>