<?xml version="1.0" standalone="no"?>
<svg xmlns:xlink="http://www.w3.org/1999/xlink" id="wave" style="transform:rotate(0deg); transition: 0.3s" viewBox="0 0 1440 330" version="1.1" xmlns="http://www.w3.org/2000/svg"><defs><linearGradient id="sw-gradient-0" x1="0" x2="0" y1="1" y2="0"><stop stop-color="rgba(76, 29, 149, 1)" offset="0%"/><stop stop-color="rgba(76, 29, 149, 1)" offset="100%"/></linearGradient></defs><path style="transform:translate(0, 0px); opacity:1" fill="url(#sw-gradient-0)" d="M0,33L48,33C96,33,192,33,288,60.5C384,88,480,143,576,187C672,231,768,264,864,247.5C960,231,1056,165,1152,143C1248,121,1344,143,1440,170.5C1536,198,1632,231,1728,253C1824,275,1920,286,2016,264C2112,242,2208,187,2304,143C2400,99,2496,66,2592,82.5C2688,99,2784,165,2880,181.5C2976,198,3072,165,3168,148.5C3264,132,3360,132,3456,148.5C3552,165,3648,198,3744,225.5C3840,253,3936,275,4032,264C4128,253,4224,209,4320,176C4416,143,4512,121,4608,126.5C4704,132,4800,165,4896,181.5C4992,198,5088,198,5184,203.5C5280,209,5376,220,5472,236.5C5568,253,5664,275,5760,264C5856,253,5952,209,6048,192.5C6144,176,6240,187,6336,192.5C6432,198,6528,198,6624,181.5C6720,165,6816,132,6864,115.5L6912,99L6912,330L6864,330C6816,330,6720,330,6624,330C6528,330,6432,330,6336,330C6240,330,6144,330,6048,330C5952,330,5856,330,5760,330C5664,330,5568,330,5472,330C5376,330,5280,330,5184,330C5088,330,4992,330,4896,330C4800,330,4704,330,4608,330C4512,330,4416,330,4320,330C4224,330,4128,330,4032,330C3936,330,3840,330,3744,330C3648,330,3552,330,3456,330C3360,330,3264,330,3168,330C3072,330,2976,330,2880,330C2784,330,2688,330,2592,330C2496,330,2400,330,2304,330C2208,330,2112,330,2016,330C1920,330,1824,330,1728,330C1632,330,1536,330,1440,330C1344,330,1248,330,1152,330C1056,330,960,330,864,330C768,330,672,330,576,330C480,330,384,330,288,330C192,330,96,330,48,330L0,330Z"/></svg>