<?xml version="1.0" standalone="no"?>
<svg xmlns:xlink="http://www.w3.org/1999/xlink" id="wave" style="transform:rotate(180deg); transition: 0.3s" viewBox="0 0 1440 490" version="1.1" xmlns="http://www.w3.org/2000/svg"><defs><linearGradient id="sw-gradient-0" x1="0" x2="0" y1="1" y2="0"><stop stop-color="rgba(76, 29, 149, 1)" offset="0%"/><stop stop-color="rgba(76, 29, 149, 1)" offset="100%"/></linearGradient></defs><path style="transform:translate(0, 0px); opacity:1" fill="url(#sw-gradient-0)" d="M0,392L80,400.2C160,408,320,425,480,400.2C640,376,800,310,960,310.3C1120,310,1280,376,1440,375.7C1600,376,1760,310,1920,310.3C2080,310,2240,376,2400,334.8C2560,294,2720,147,2880,89.8C3040,33,3200,65,3360,138.8C3520,212,3680,327,3840,383.8C4000,441,4160,441,4320,392C4480,343,4640,245,4800,187.8C4960,131,5120,114,5280,138.8C5440,163,5600,229,5760,212.3C5920,196,6080,98,6240,65.3C6400,33,6560,65,6720,130.7C6880,196,7040,294,7200,351.2C7360,408,7520,425,7680,432.8C7840,441,8000,441,8160,392C8320,343,8480,245,8640,187.8C8800,131,8960,114,9120,114.3C9280,114,9440,131,9600,155.2C9760,180,9920,212,10080,204.2C10240,196,10400,147,10560,147C10720,147,10880,196,11040,187.8C11200,180,11360,114,11440,81.7L11520,49L11520,490L11440,490C11360,490,11200,490,11040,490C10880,490,10720,490,10560,490C10400,490,10240,490,10080,490C9920,490,9760,490,9600,490C9440,490,9280,490,9120,490C8960,490,8800,490,8640,490C8480,490,8320,490,8160,490C8000,490,7840,490,7680,490C7520,490,7360,490,7200,490C7040,490,6880,490,6720,490C6560,490,6400,490,6240,490C6080,490,5920,490,5760,490C5600,490,5440,490,5280,490C5120,490,4960,490,4800,490C4640,490,4480,490,4320,490C4160,490,4000,490,3840,490C3680,490,3520,490,3360,490C3200,490,3040,490,2880,490C2720,490,2560,490,2400,490C2240,490,2080,490,1920,490C1760,490,1600,490,1440,490C1280,490,1120,490,960,490C800,490,640,490,480,490C320,490,160,490,80,490L0,490Z"/></svg>