<?xml version="1.0" standalone="no"?>
<svg xmlns:xlink="http://www.w3.org/1999/xlink" id="wave" style="transform:rotate(0deg); transition: 0.3s" viewBox="0 0 1440 380" version="1.1" xmlns="http://www.w3.org/2000/svg"><defs><linearGradient id="sw-gradient-0" x1="0" x2="0" y1="1" y2="0"><stop stop-color="rgba(76, 29, 149, 1)" offset="0%"/><stop stop-color="rgba(76, 29, 149, 1)" offset="100%"/></linearGradient></defs><path style="transform:translate(0, 0px); opacity:1" fill="url(#sw-gradient-0)" d="M0,114L48,120.3C96,127,192,139,288,152C384,165,480,177,576,171C672,165,768,139,864,114C960,89,1056,63,1152,63.3C1248,63,1344,89,1440,114C1536,139,1632,165,1728,164.7C1824,165,1920,139,2016,164.7C2112,190,2208,266,2304,297.7C2400,329,2496,317,2592,316.7C2688,317,2784,329,2880,335.7C2976,342,3072,342,3168,329.3C3264,317,3360,291,3456,240.7C3552,190,3648,114,3744,120.3C3840,127,3936,215,4032,234.3C4128,253,4224,203,4320,183.7C4416,165,4512,177,4608,171C4704,165,4800,139,4896,120.3C4992,101,5088,89,5184,88.7C5280,89,5376,101,5472,95C5568,89,5664,63,5760,69.7C5856,76,5952,114,6048,107.7C6144,101,6240,51,6336,31.7C6432,13,6528,25,6624,69.7C6720,114,6816,190,6864,228L6912,266L6912,380L6864,380C6816,380,6720,380,6624,380C6528,380,6432,380,6336,380C6240,380,6144,380,6048,380C5952,380,5856,380,5760,380C5664,380,5568,380,5472,380C5376,380,5280,380,5184,380C5088,380,4992,380,4896,380C4800,380,4704,380,4608,380C4512,380,4416,380,4320,380C4224,380,4128,380,4032,380C3936,380,3840,380,3744,380C3648,380,3552,380,3456,380C3360,380,3264,380,3168,380C3072,380,2976,380,2880,380C2784,380,2688,380,2592,380C2496,380,2400,380,2304,380C2208,380,2112,380,2016,380C1920,380,1824,380,1728,380C1632,380,1536,380,1440,380C1344,380,1248,380,1152,380C1056,380,960,380,864,380C768,380,672,380,576,380C480,380,384,380,288,380C192,380,96,380,48,380L0,380Z"/></svg>