<?xml version="1.0" standalone="no"?>
<svg xmlns:xlink="http://www.w3.org/1999/xlink" id="wave" style="transform:rotate(180deg); transition: 0.3s" viewBox="0 0 1440 230" version="1.1" xmlns="http://www.w3.org/2000/svg"><defs><linearGradient id="sw-gradient-0" x1="0" x2="0" y1="1" y2="0"><stop stop-color="rgba(76, 29, 149, 1)" offset="0%"/><stop stop-color="rgba(76, 29, 149, 1)" offset="100%"/></linearGradient></defs><path style="transform:translate(0, 0px); opacity:1" fill="url(#sw-gradient-0)" d="M0,46L80,72.8C160,100,320,153,480,149.5C640,146,800,84,960,49.8C1120,15,1280,8,1440,26.8C1600,46,1760,92,1920,107.3C2080,123,2240,107,2400,107.3C2560,107,2720,123,2880,134.2C3040,146,3200,153,3360,134.2C3520,115,3680,69,3840,49.8C4000,31,4160,38,4320,57.5C4480,77,4640,107,4800,107.3C4960,107,5120,77,5280,88.2C5440,100,5600,153,5760,164.8C5920,176,6080,146,6240,111.2C6400,77,6560,38,6720,34.5C6880,31,7040,61,7200,88.2C7360,115,7520,138,7680,134.2C7840,130,8000,100,8160,72.8C8320,46,8480,23,8640,11.5C8800,0,8960,0,9120,34.5C9280,69,9440,138,9600,164.8C9760,192,9920,176,10080,168.7C10240,161,10400,161,10560,134.2C10720,107,10880,54,11040,61.3C11200,69,11360,138,11440,172.5L11520,207L11520,230L11440,230C11360,230,11200,230,11040,230C10880,230,10720,230,10560,230C10400,230,10240,230,10080,230C9920,230,9760,230,9600,230C9440,230,9280,230,9120,230C8960,230,8800,230,8640,230C8480,230,8320,230,8160,230C8000,230,7840,230,7680,230C7520,230,7360,230,7200,230C7040,230,6880,230,6720,230C6560,230,6400,230,6240,230C6080,230,5920,230,5760,230C5600,230,5440,230,5280,230C5120,230,4960,230,4800,230C4640,230,4480,230,4320,230C4160,230,4000,230,3840,230C3680,230,3520,230,3360,230C3200,230,3040,230,2880,230C2720,230,2560,230,2400,230C2240,230,2080,230,1920,230C1760,230,1600,230,1440,230C1280,230,1120,230,960,230C800,230,640,230,480,230C320,230,160,230,80,230L0,230Z"/></svg>