<?xml version="1.0" standalone="no"?>
<svg xmlns:xlink="http://www.w3.org/1999/xlink" id="wave" style="transform:rotate(0deg); transition: 0.3s" viewBox="0 0 1440 490" version="1.1" xmlns="http://www.w3.org/2000/svg"><defs><linearGradient id="sw-gradient-0" x1="0" x2="0" y1="1" y2="0"><stop stop-color="rgba(0, 0, 0, 1)" offset="0%"/><stop stop-color="rgba(76, 29, 149, 1)" offset="100%"/></linearGradient></defs><path style="transform:translate(0, 0px); opacity:1" fill="url(#sw-gradient-0)" d="M0,0L48,0C96,0,192,0,288,57.2C384,114,480,229,576,253.2C672,278,768,212,864,228.7C960,245,1056,343,1152,318.5C1248,294,1344,147,1440,147C1536,147,1632,294,1728,359.3C1824,425,1920,408,2016,343C2112,278,2208,163,2304,155.2C2400,147,2496,245,2592,253.2C2688,261,2784,180,2880,122.5C2976,65,3072,33,3168,16.3C3264,0,3360,0,3456,65.3C3552,131,3648,261,3744,318.5C3840,376,3936,359,4032,343C4128,327,4224,310,4320,253.2C4416,196,4512,98,4608,57.2C4704,16,4800,33,4896,65.3C4992,98,5088,147,5184,187.8C5280,229,5376,261,5472,269.5C5568,278,5664,261,5760,245C5856,229,5952,212,6048,187.8C6144,163,6240,131,6336,163.3C6432,196,6528,294,6624,343C6720,392,6816,392,6864,392L6912,392L6912,490L6864,490C6816,490,6720,490,6624,490C6528,490,6432,490,6336,490C6240,490,6144,490,6048,490C5952,490,5856,490,5760,490C5664,490,5568,490,5472,490C5376,490,5280,490,5184,490C5088,490,4992,490,4896,490C4800,490,4704,490,4608,490C4512,490,4416,490,4320,490C4224,490,4128,490,4032,490C3936,490,3840,490,3744,490C3648,490,3552,490,3456,490C3360,490,3264,490,3168,490C3072,490,2976,490,2880,490C2784,490,2688,490,2592,490C2496,490,2400,490,2304,490C2208,490,2112,490,2016,490C1920,490,1824,490,1728,490C1632,490,1536,490,1440,490C1344,490,1248,490,1152,490C1056,490,960,490,864,490C768,490,672,490,576,490C480,490,384,490,288,490C192,490,96,490,48,490L0,490Z"/></svg>