<?xml version="1.0" standalone="no"?>
<svg xmlns:xlink="http://www.w3.org/1999/xlink" id="wave" style="transform:rotate(180deg); transition: 0.3s" viewBox="0 0 1440 490" version="1.1" xmlns="http://www.w3.org/2000/svg"><defs><linearGradient id="sw-gradient-0" x1="0" x2="0" y1="1" y2="0"><stop stop-color="rgba(0, 2.326, 6.427, 1)" offset="0%"/><stop stop-color="rgba(76, 29, 116, 1)" offset="100%"/></linearGradient></defs><path style="transform:translate(0, 0px); opacity:1" fill="url(#sw-gradient-0)" d="M0,0L60,57.2C120,114,240,229,360,245C480,261,600,180,720,122.5C840,65,960,33,1080,49C1200,65,1320,131,1440,138.8C1560,147,1680,98,1800,98C1920,98,2040,147,2160,187.8C2280,229,2400,261,2520,277.7C2640,294,2760,294,2880,310.3C3000,327,3120,359,3240,318.5C3360,278,3480,163,3600,98C3720,33,3840,16,3960,32.7C4080,49,4200,98,4320,155.2C4440,212,4560,278,4680,326.7C4800,376,4920,408,5040,367.5C5160,327,5280,212,5400,155.2C5520,98,5640,98,5760,98C5880,98,6000,98,6120,122.5C6240,147,6360,196,6480,212.3C6600,229,6720,212,6840,204.2C6960,196,7080,196,7200,220.5C7320,245,7440,294,7560,269.5C7680,245,7800,147,7920,114.3C8040,82,8160,114,8280,163.3C8400,212,8520,278,8580,310.3L8640,343L8640,490L8580,490C8520,490,8400,490,8280,490C8160,490,8040,490,7920,490C7800,490,7680,490,7560,490C7440,490,7320,490,7200,490C7080,490,6960,490,6840,490C6720,490,6600,490,6480,490C6360,490,6240,490,6120,490C6000,490,5880,490,5760,490C5640,490,5520,490,5400,490C5280,490,5160,490,5040,490C4920,490,4800,490,4680,490C4560,490,4440,490,4320,490C4200,490,4080,490,3960,490C3840,490,3720,490,3600,490C3480,490,3360,490,3240,490C3120,490,3000,490,2880,490C2760,490,2640,490,2520,490C2400,490,2280,490,2160,490C2040,490,1920,490,1800,490C1680,490,1560,490,1440,490C1320,490,1200,490,1080,490C960,490,840,490,720,490C600,490,480,490,360,490C240,490,120,490,60,490L0,490Z"/></svg>