<?xml version="1.0" standalone="no"?>
<svg xmlns:xlink="http://www.w3.org/1999/xlink" id="wave" style="transform:rotate(180deg); transition: 0.3s" viewBox="0 0 1440 210" version="1.1" xmlns="http://www.w3.org/2000/svg"><defs><linearGradient id="sw-gradient-0" x1="0" x2="0" y1="1" y2="0"><stop stop-color="rgba(76, 29, 149, 1)" offset="0%"/><stop stop-color="rgba(76, 29, 149, 1)" offset="100%"/></linearGradient></defs><path style="transform:translate(0, 0px); opacity:1" fill="url(#sw-gradient-0)" d="M0,168L40,147C80,126,160,84,240,77C320,70,400,98,480,122.5C560,147,640,168,720,171.5C800,175,880,161,960,154C1040,147,1120,147,1200,133C1280,119,1360,91,1440,91C1520,91,1600,119,1680,115.5C1760,112,1840,77,1920,52.5C2000,28,2080,14,2160,24.5C2240,35,2320,70,2400,80.5C2480,91,2560,77,2640,66.5C2720,56,2800,49,2880,70C2960,91,3040,140,3120,136.5C3200,133,3280,77,3360,59.5C3440,42,3520,63,3600,63C3680,63,3760,42,3840,59.5C3920,77,4000,133,4080,140C4160,147,4240,105,4320,77C4400,49,4480,35,4560,24.5C4640,14,4720,7,4800,17.5C4880,28,4960,56,5040,63C5120,70,5200,56,5280,70C5360,84,5440,126,5520,150.5C5600,175,5680,182,5720,185.5L5760,189L5760,210L5720,210C5680,210,5600,210,5520,210C5440,210,5360,210,5280,210C5200,210,5120,210,5040,210C4960,210,4880,210,4800,210C4720,210,4640,210,4560,210C4480,210,4400,210,4320,210C4240,210,4160,210,4080,210C4000,210,3920,210,3840,210C3760,210,3680,210,3600,210C3520,210,3440,210,3360,210C3280,210,3200,210,3120,210C3040,210,2960,210,2880,210C2800,210,2720,210,2640,210C2560,210,2480,210,2400,210C2320,210,2240,210,2160,210C2080,210,2000,210,1920,210C1840,210,1760,210,1680,210C1600,210,1520,210,1440,210C1360,210,1280,210,1200,210C1120,210,1040,210,960,210C880,210,800,210,720,210C640,210,560,210,480,210C400,210,320,210,240,210C160,210,80,210,40,210L0,210Z"/></svg>