<?xml version="1.0" standalone="no"?>
<svg xmlns:xlink="http://www.w3.org/1999/xlink" id="wave" style="transform:rotate(180deg); transition: 0.3s" viewBox="0 0 1440 340" version="1.1" xmlns="http://www.w3.org/2000/svg"><defs><linearGradient id="sw-gradient-0" x1="0" x2="0" y1="1" y2="0"><stop stop-color="rgba(76, 29, 158, 1)" offset="0%"/><stop stop-color="rgba(76, 29, 149, 1)" offset="100%"/></linearGradient></defs><path style="transform:translate(0, 0px); opacity:1" fill="url(#sw-gradient-0)" d="M0,0L60,39.7C120,79,240,159,360,170C480,181,600,125,720,85C840,45,960,23,1080,34C1200,45,1320,91,1440,96.3C1560,102,1680,68,1800,68C1920,68,2040,102,2160,130.3C2280,159,2400,181,2520,192.7C2640,204,2760,204,2880,215.3C3000,227,3120,249,3240,221C3360,193,3480,113,3600,68C3720,23,3840,11,3960,22.7C4080,34,4200,68,4320,107.7C4440,147,4560,193,4680,226.7C4800,261,4920,283,5040,255C5160,227,5280,147,5400,107.7C5520,68,5640,68,5760,68C5880,68,6000,68,6120,85C6240,102,6360,136,6480,147.3C6600,159,6720,147,6840,141.7C6960,136,7080,136,7200,153C7320,170,7440,204,7560,187C7680,170,7800,102,7920,79.3C8040,57,8160,79,8280,113.3C8400,147,8520,193,8580,215.3L8640,238L8640,340L8580,340C8520,340,8400,340,8280,340C8160,340,8040,340,7920,340C7800,340,7680,340,7560,340C7440,340,7320,340,7200,340C7080,340,6960,340,6840,340C6720,340,6600,340,6480,340C6360,340,6240,340,6120,340C6000,340,5880,340,5760,340C5640,340,5520,340,5400,340C5280,340,5160,340,5040,340C4920,340,4800,340,4680,340C4560,340,4440,340,4320,340C4200,340,4080,340,3960,340C3840,340,3720,340,3600,340C3480,340,3360,340,3240,340C3120,340,3000,340,2880,340C2760,340,2640,340,2520,340C2400,340,2280,340,2160,340C2040,340,1920,340,1800,340C1680,340,1560,340,1440,340C1320,340,1200,340,1080,340C960,340,840,340,720,340C600,340,480,340,360,340C240,340,120,340,60,340L0,340Z"/></svg>