<?xml version="1.0" standalone="no"?>
<svg xmlns:xlink="http://www.w3.org/1999/xlink" id="wave" style="transform:rotate(0deg); transition: 0.3s" viewBox="0 0 1440 260" version="1.1" xmlns="http://www.w3.org/2000/svg"><defs><linearGradient id="sw-gradient-0" x1="0" x2="0" y1="1" y2="0"><stop stop-color="rgba(0, 0, 0, 1)" offset="0%"/><stop stop-color="rgba(46, 16, 101, 1)" offset="100%"/></linearGradient></defs><path style="transform:translate(0, 0px); opacity:1" fill="url(#sw-gradient-0)" d="M0,52L34.3,47.7C68.6,43,137,35,206,52C274.3,69,343,113,411,138.7C480,165,549,173,617,177.7C685.7,182,754,182,823,151.7C891.4,121,960,61,1029,56.3C1097.1,52,1166,104,1234,125.7C1302.9,147,1371,139,1440,130C1508.6,121,1577,113,1646,108.3C1714.3,104,1783,104,1851,91C1920,78,1989,52,2057,56.3C2125.7,61,2194,95,2263,125.7C2331.4,156,2400,182,2469,160.3C2537.1,139,2606,69,2674,65C2742.9,61,2811,121,2880,147.3C2948.6,173,3017,165,3086,147.3C3154.3,130,3223,104,3291,95.3C3360,87,3429,95,3497,95.3C3565.7,95,3634,87,3703,91C3771.4,95,3840,113,3909,108.3C3977.1,104,4046,78,4114,86.7C4182.9,95,4251,139,4320,130C4388.6,121,4457,61,4526,65C4594.3,69,4663,139,4731,156C4800,173,4869,139,4903,121.3L4937.1,104L4937.1,260L4902.9,260C4868.6,260,4800,260,4731,260C4662.9,260,4594,260,4526,260C4457.1,260,4389,260,4320,260C4251.4,260,4183,260,4114,260C4045.7,260,3977,260,3909,260C3840,260,3771,260,3703,260C3634.3,260,3566,260,3497,260C3428.6,260,3360,260,3291,260C3222.9,260,3154,260,3086,260C3017.1,260,2949,260,2880,260C2811.4,260,2743,260,2674,260C2605.7,260,2537,260,2469,260C2400,260,2331,260,2263,260C2194.3,260,2126,260,2057,260C1988.6,260,1920,260,1851,260C1782.9,260,1714,260,1646,260C1577.1,260,1509,260,1440,260C1371.4,260,1303,260,1234,260C1165.7,260,1097,260,1029,260C960,260,891,260,823,260C754.3,260,686,260,617,260C548.6,260,480,260,411,260C342.9,260,274,260,206,260C137.1,260,69,260,34,260L0,260Z"/></svg>