<?xml version="1.0" standalone="no"?>
<svg xmlns:xlink="http://www.w3.org/1999/xlink" id="wave" style="transform:rotate(0deg); transition: 0.3s" viewBox="0 0 1440 490" version="1.1" xmlns="http://www.w3.org/2000/svg"><defs><linearGradient id="sw-gradient-0" x1="0" x2="0" y1="1" y2="0"><stop stop-color="rgba(76, 29, 149, 1)" offset="0%"/><stop stop-color="rgba(76, 29, 149, 1)" offset="100%"/></linearGradient></defs><path style="transform:translate(0, 0px); opacity:1" fill="url(#sw-gradient-0)" d="M0,245L80,204.2C160,163,320,82,480,106.2C640,131,800,261,960,269.5C1120,278,1280,163,1440,106.2C1600,49,1760,49,1920,49C2080,49,2240,49,2400,89.8C2560,131,2720,212,2880,236.8C3040,261,3200,229,3360,228.7C3520,229,3680,261,3840,261.3C4000,261,4160,229,4320,253.2C4480,278,4640,359,4800,351.2C4960,343,5120,245,5280,245C5440,245,5600,343,5760,383.8C5920,425,6080,408,6240,400.2C6400,392,6560,392,6720,334.8C6880,278,7040,163,7200,114.3C7360,65,7520,82,7680,147C7840,212,8000,327,8160,383.8C8320,441,8480,441,8640,367.5C8800,294,8960,147,9120,89.8C9280,33,9440,65,9600,130.7C9760,196,9920,294,10080,302.2C10240,310,10400,229,10560,212.3C10720,196,10880,245,11040,245C11200,245,11360,196,11440,171.5L11520,147L11520,490L11440,490C11360,490,11200,490,11040,490C10880,490,10720,490,10560,490C10400,490,10240,490,10080,490C9920,490,9760,490,9600,490C9440,490,9280,490,9120,490C8960,490,8800,490,8640,490C8480,490,8320,490,8160,490C8000,490,7840,490,7680,490C7520,490,7360,490,7200,490C7040,490,6880,490,6720,490C6560,490,6400,490,6240,490C6080,490,5920,490,5760,490C5600,490,5440,490,5280,490C5120,490,4960,490,4800,490C4640,490,4480,490,4320,490C4160,490,4000,490,3840,490C3680,490,3520,490,3360,490C3200,490,3040,490,2880,490C2720,490,2560,490,2400,490C2240,490,2080,490,1920,490C1760,490,1600,490,1440,490C1280,490,1120,490,960,490C800,490,640,490,480,490C320,490,160,490,80,490L0,490Z"/></svg>